<svg xmlns="http://www.w3.org/2000/svg" width="400" height="600" viewBox="0 0 400 600"><rect width="100%" height="100%" fill="#DDDDDD"/><path fill="#999999" d="M87.3 304.72h11.66v-12.54q0-1.77.24-3.92l-11.9 16.46Zm17.36 0h4.82v3.79q0 .53-.35.91-.34.39-.98.39h-3.49v9.35h-5.7v-9.35H82.79q-.66 0-1.16-.42-.51-.41-.64-1.02l-.69-3.31 18.16-24.25h6.2v23.91Zm35.59-4.72q0 5.01-1.08 8.71-1.07 3.69-2.97 6.1-1.89 2.42-4.47 3.59-2.59 1.18-5.58 1.18-3 0-5.55-1.18-2.56-1.17-4.44-3.59-1.88-2.41-2.94-6.1-1.06-3.7-1.06-8.71 0-5.03 1.06-8.72 1.06-3.68 2.94-6.09 1.88-2.41 4.44-3.59 2.55-1.18 5.55-1.18 2.99 0 5.58 1.18 2.58 1.18 4.47 3.59 1.9 2.41 2.97 6.09 1.08 3.69 1.08 8.72Zm-6.76 0q0-4.16-.61-6.89-.61-2.73-1.63-4.35-1.02-1.61-2.35-2.26-1.32-.65-2.75-.65-1.41 0-2.72.65-1.31.65-2.32 2.26-1 1.62-1.6 4.35-.6 2.73-.6 6.89t.6 6.89q.6 2.73 1.6 4.35 1.01 1.61 2.32 2.26 1.31.65 2.72.65 1.43 0 2.75-.65 1.33-.65 2.35-2.26 1.02-1.62 1.63-4.35.61-2.73.61-6.89Zm37.5 0q0 5.01-1.08 8.71-1.07 3.69-2.97 6.1-1.89 2.42-4.47 3.59-2.59 1.18-5.58 1.18-3 0-5.55-1.18-2.56-1.17-4.44-3.59-1.88-2.41-2.94-6.1-1.06-3.7-1.06-8.71 0-5.03 1.06-8.72 1.06-3.68 2.94-6.09 1.88-2.41 4.44-3.59 2.55-1.18 5.55-1.18 2.99 0 5.58 1.18 2.58 1.18 4.47 3.59 1.9 2.41 2.97 6.09 1.08 3.69 1.08 8.72Zm-6.76 0q0-4.16-.61-6.89-.61-2.73-1.63-4.35-1.02-1.61-2.35-2.26-1.32-.65-2.75-.65-1.41 0-2.72.65-1.31.65-2.32 2.26-1 1.62-1.6 4.35-.6 2.73-.6 6.89t.6 6.89q.6 2.73 1.6 4.35 1.01 1.61 2.32 2.26 1.31.65 2.72.65 1.43 0 2.75-.65 1.33-.65 2.35-2.26 1.02-1.62 1.63-4.35.61-2.73.61-6.89Zm48.84 10.39-3.47 3.42-8.99-8.99-9.06 9.04-3.47-3.42 9.06-9.09-8.64-8.64 3.45-3.44 8.64 8.64 8.58-8.59 3.5 3.45-8.61 8.61 9.01 9.01Zm40.94-29.55-11.37 13.91-1.32 1.65q1.11-.56 2.4-.86 1.28-.31 2.76-.31 2.18 0 4.23.72 2.05.71 3.62 2.16 1.56 1.44 2.52 3.59.95 2.14.95 5 0 2.68-.98 5.03-.98 2.34-2.76 4.09-1.77 1.75-4.28 2.76-2.5 1-5.52 1-3.08 0-5.51-.98-2.44-.98-4.16-2.74-1.73-1.76-2.64-4.24-.92-2.48-.92-5.5 0-2.7 1.1-5.55 1.1-2.85 3.41-5.92l9.14-12.27q.48-.64 1.39-1.09.92-.45 2.11-.45h5.83Zm-9.88 33.39q1.56 0 2.87-.53t2.25-1.48q.94-.96 1.47-2.24.53-1.29.53-2.8 0-1.64-.5-2.95-.5-1.31-1.43-2.23-.93-.91-2.23-1.39-1.29-.48-2.86-.48-1.56 0-2.83.53-1.28.53-2.18 1.47-.9.94-1.4 2.23-.5 1.29-.5 2.77 0 1.59.43 2.9.44 1.31 1.3 2.24.86.93 2.13 1.44 1.28.52 2.95.52ZM288.96 300q0 5.01-1.07 8.71-1.07 3.69-2.97 6.1-1.89 2.42-4.48 3.59-2.58 1.18-5.57 1.18-3 0-5.56-1.18-2.55-1.17-4.43-3.59-1.89-2.41-2.95-6.1-1.06-3.7-1.06-8.71 0-5.03 1.06-8.72 1.06-3.68 2.95-6.09 1.88-2.41 4.43-3.59 2.56-1.18 5.56-1.18 2.99 0 5.57 1.18 2.59 1.18 4.48 3.59 1.9 2.41 2.97 6.09 1.07 3.69 1.07 8.72Zm-6.75 0q0-4.16-.61-6.89-.61-2.73-1.63-4.35-1.02-1.61-2.35-2.26-1.32-.65-2.75-.65-1.41 0-2.72.65-1.31.65-2.32 2.26-1.01 1.62-1.6 4.35-.6 2.73-.6 6.89t.6 6.89q.59 2.73 1.6 4.35 1.01 1.61 2.32 2.26 1.31.65 2.72.65 1.43 0 2.75-.65 1.33-.65 2.35-2.26 1.02-1.62 1.63-4.35.61-2.73.61-6.89Zm37.49 0q0 5.01-1.07 8.71-1.07 3.69-2.97 6.1-1.89 2.42-4.48 3.59-2.58 1.18-5.57 1.18-3 0-5.56-1.18-2.55-1.17-4.43-3.59-1.89-2.41-2.95-6.1-1.06-3.7-1.06-8.71 0-5.03 1.06-8.72 1.06-3.68 2.95-6.09 1.88-2.41 4.43-3.59 2.56-1.18 5.56-1.18 2.99 0 5.57 1.18 2.59 1.18 4.48 3.59 1.9 2.41 2.97 6.09 1.07 3.69 1.07 8.72Zm-6.75 0q0-4.16-.61-6.89-.61-2.73-1.63-4.35-1.02-1.61-2.35-2.26-1.32-.65-2.75-.65-1.41 0-2.72.65-1.31.65-2.32 2.26-1.01 1.62-1.6 4.35-.6 2.73-.6 6.89t.6 6.89q.59 2.73 1.6 4.35 1.01 1.61 2.32 2.26 1.31.65 2.72.65 1.43 0 2.75-.65 1.33-.65 2.35-2.26 1.02-1.62 1.63-4.35.61-2.73.61-6.89Z"/></svg>